<svg id="Layer_1" data-name="Layer 1" xmlns="http://www.w3.org/2000/svg" viewBox="0 0 52.21 47.8"><defs><style>.cls-1{fill:#fff;}</style></defs><title>icon-svg</title><path class="cls-1" d="M12.73,30.68h8.94a2,2,0,0,1,1.64.84,1,1,0,0,0,.8.4h.31a1,1,0,0,0,.8-.4,2,2,0,0,1,1.64-.84h8.94a1,1,0,0,0,1-.88,1.65,1.65,0,0,0-.47-1.28C35,27,31,26.27,24.49,26.24H24c-6.54,0-10.52.8-11.82,2.28a1.65,1.65,0,0,0-.47,1.28A1,1,0,0,0,12.73,30.68Zm11.38-2.44h.3a46.62,46.62,0,0,1,6.86.44H26.85a3.93,3.93,0,0,0-2.59.95,3.93,3.93,0,0,0-2.59-.95H17.25A46.62,46.62,0,0,1,24.11,28.24Z"/><path class="cls-1" d="M51.81,5.48c-5.17-3.88-20.75-7.3-23.42-4.4C26.61,3,26.32,7.67,26.29,9.8h-12a1,1,0,0,0-.49.13A25.65,25.65,0,0,0,5.44,18.4l-.15.25c-.47-.2-.9-.54-.81-1.1.19-1.12-3.06-1.12-4.31,1.38-.9,1.8,2.06,2,3.79,2-.4.75-.65,1.29-.84,1.7-.5,1.09-.64,1.38-2.77,3.44a1,1,0,0,0-.3.72V43.36a4.43,4.43,0,0,0,8.84.36,103.66,103.66,0,0,0,15.54.95A103.66,103.66,0,0,0,40,43.73a4.43,4.43,0,0,0,8.84-.36V26.8a1,1,0,0,0-.3-.72c-2.13-2.06-2.26-2.35-2.77-3.44-.19-.42-.44-1-.84-1.7,1.73,0,4.69-.22,3.79-2-1.25-2.5-4.5-2.5-4.31-1.37.09.55-.34.89-.81,1.1l-.15-.25A25.65,25.65,0,0,0,35,9.93a1,1,0,0,0-.49-.13H28.29c0-2.55.46-6.16,1.57-7.36,1.27-1.37,15.21.49,20.75,4.64a1,1,0,1,0,1.2-1.6ZM24.42,19.93H42a31.5,31.5,0,0,1,1.92,3.56c.16.34.29.62.44.89C42.1,25,37,26.6,38.29,27.93c1.51,1.51,5.52,1.71,8.5-.32v12c-.53.38-2.39,1.42-7.6,2.18l-5.44-5.51A1,1,0,0,0,33,36H15.79a1,1,0,0,0-.71.3L9.65,41.8C4.46,41,2.57,40,2,39.62v-12c3,2,7,1.83,8.5.32C11.87,26.6,6.73,25,4.48,24.38c.15-.27.29-.55.44-.89a31.5,31.5,0,0,1,1.92-3.56ZM4.48,45.8A2.44,2.44,0,0,1,2,43.36V41.91a21.47,21.47,0,0,0,4.87,1.47A2.44,2.44,0,0,1,4.48,45.8Zm7.67-3.68L16.21,38H32.62l4.07,4.12a118.23,118.23,0,0,1-12.28.55A116.68,116.68,0,0,1,12.15,42.12ZM44.35,45.8a2.44,2.44,0,0,1-2.44-2.42,21.47,21.47,0,0,0,4.87-1.47v1.45A2.44,2.44,0,0,1,44.35,45.8ZM40.66,17.93H8.17a24.26,24.26,0,0,1,6.39-6.12h19.7A24.06,24.06,0,0,1,40.66,17.93Z"/></svg>