<svg id="Layer_1" data-name="Layer 1" xmlns="http://www.w3.org/2000/svg" viewBox="0 0 38.85 51.66"><defs><style>.cls-1{fill:#76838f;}</style></defs><title>icon-svg</title><path class="cls-1" d="M33.87,5.24C28.31-.12,20.16,0,19.42,0S10.54-.11,5,5.24C1.68,8.42,0,12.85,0,18.4,0,26,3.25,34.11,9.38,41.89a60.66,60.66,0,0,0,9.33,9.54,1.15,1.15,0,0,0,1.41,0,60.66,60.66,0,0,0,9.33-9.54C35.6,34.11,38.85,26,38.85,18.4,38.85,12.85,37.17,8.42,33.87,5.24ZM19.42,49C16.11,46.21,2.3,33.57,2.3,18.4c0-4.89,1.43-8.76,4.26-11.49C11.12,2.5,18,2.3,19.2,2.3h.26c.07,0,7.8-.23,12.8,4.59,2.84,2.73,4.28,6.6,4.28,11.5C36.55,33.55,22.73,46.21,19.42,49Z"/><path class="cls-1" d="M19.42,7.68A11.84,11.84,0,1,0,31.26,19.52,11.85,11.85,0,0,0,19.42,7.68Zm0,21.38A9.54,9.54,0,1,1,29,19.52,9.55,9.55,0,0,1,19.42,29.06Z"/></svg>