<svg id="Layer_1" data-name="Layer 1" xmlns="http://www.w3.org/2000/svg" viewBox="0 0 21.12 32.02"><defs><style>.cls-1{opacity:0.37;}.cls-2{fill:#63b42d;}</style></defs><title>icon-svg</title><path class="cls-1" d="M20.68,15.45,11.63,2.51a1.22,1.22,0,0,0-2.13,0L.45,15.45c-1,1.36-.28,3.68,1.07,3.68H8.46V32.27a1.91,1.91,0,0,0,2.1,1.62,1.91,1.91,0,0,0,2.1-1.62V19.13h6.95C21,19.13,21.63,16.81,20.68,15.45Z"/><path class="cls-2" d="M20.68,13.57,11.63.63A1.22,1.22,0,0,0,9.5.63L.45,13.57c-1,1.36-.28,3.68,1.07,3.68H8.46V30.4A1.91,1.91,0,0,0,10.56,32a1.91,1.91,0,0,0,2.1-1.62V17.26h6.95C21,17.26,21.63,14.93,20.68,13.57Z"/></svg>