<svg id="Layer_1" data-name="Layer 1" xmlns="http://www.w3.org/2000/svg" viewBox="0 0 21.12 32.02"><defs><style>.cls-1{opacity:0.37;}.cls-2{fill:#d68945;}</style></defs><title>icon-svg</title><path class="cls-1" d="M20.68,16.58,11.63,29.52a1.22,1.22,0,0,1-2.13,0L.45,16.58c-1-1.36-.28-3.68,1.07-3.68H8.46V-.25a1.91,1.91,0,0,1,2.1-1.62,1.91,1.91,0,0,1,2.1,1.62V12.89h6.95C21,12.89,21.63,15.22,20.68,16.58Z"/><path class="cls-2" d="M20.68,18.45,11.63,31.39a1.22,1.22,0,0,1-2.13,0L.45,18.45c-1-1.36-.28-3.68,1.07-3.68H8.46V1.62A1.91,1.91,0,0,1,10.56,0a1.91,1.91,0,0,1,2.1,1.62V14.77h6.95C21,14.77,21.63,17.09,20.68,18.45Z"/></svg>