<svg id="Layer_1" data-name="Layer 1" xmlns="http://www.w3.org/2000/svg" viewBox="0 0 48.94 45.44"><defs><style>.cls-1{fill:#76838f;}</style></defs><title>icon-svg</title><path class="cls-1" d="M44.17,5.58C40.82,1.93,36,0,30.27,0,15.84,0,0,14.94,0,28.55c0,11,6.14,16.89,17.77,16.89,7.54,0,10.78-2.41,10.92-2.52a1.1,1.1,0,0,0-1.33-1.75s-2.89,2.07-9.59,2.07C7.29,43.25,2.2,38.44,2.2,28.55c0-12.31,15-26.35,28.07-26.35,5.11,0,9.36,1.68,12.28,4.87A17.1,17.1,0,0,1,46.67,20c-.71,8.21-6.08,13.32-11,14.12A6.09,6.09,0,0,1,28.95,31,22.15,22.15,0,0,0,31.39,28C36,21.44,36.2,14,32,11c-2.1-1.46-4.94-1.53-8-.2a19.14,19.14,0,0,0-7.73,6.69,19.14,19.14,0,0,0-3.55,9.58c-.18,3.32.88,5.95,3,7.41a6.61,6.61,0,0,0,3.83,1.15,10.4,10.4,0,0,0,4.15-1,16.19,16.19,0,0,0,3.6-2.24A8.24,8.24,0,0,0,36,36.25c5.77-.94,12-6.76,12.85-16.1A19.33,19.33,0,0,0,44.17,5.58ZM22.78,32.7c-2.31,1-4.39,1-5.85,0s-2.18-3-2-5.48a16.93,16.93,0,0,1,3.17-8.45,16.94,16.94,0,0,1,6.8-5.93,8.21,8.21,0,0,1,3.26-.76,4.47,4.47,0,0,1,2.59.75c3.12,2.17,2.61,8.54-1.13,13.93A16.93,16.93,0,0,1,22.78,32.7Z"/></svg>