<svg id="Layer_1" data-name="Layer 1" xmlns="http://www.w3.org/2000/svg" viewBox="0 0 41.11 53.48"><defs><style>.cls-1{fill:#76838f;}</style></defs><title>icon-svg</title><path class="cls-1" d="M33.6,27.15a17.12,17.12,0,0,0-2.92-2.45A14.42,14.42,0,1,0,6.36,11.89h0a14.26,14.26,0,0,0,4.07,12.8,17.14,17.14,0,0,0-2.92,2.45C-.74,35.83,0,51.88,0,52.56a1,1,0,0,0,1,.92H40.11a1,1,0,0,0,1-.92C41.11,51.88,41.85,35.83,33.6,27.15ZM20.55,2.2a12.17,12.17,0,0,1,4.1.71c0,.09,0,.18,0,.28a10.25,10.25,0,0,1-9.19,10.18,10.3,10.3,0,0,1-1,.05c-.28,0-.55,0-.82,0l-.27,0-.54-.07-.31-.06-.48-.1L11.69,13l-.45-.14-.33-.12-.43-.17-.32-.14-.42-.21-.3-.16L9,11.85l-.27-.17-.09-.06A12.21,12.21,0,0,1,20.55,2.2ZM8.32,14.43q0-.21,0-.43l.07,0a12.3,12.3,0,0,0,1.25.61l.3.12a12.17,12.17,0,0,0,1.21.4l.16,0a12.27,12.27,0,0,0,1.37.27l.33,0a12.56,12.56,0,0,0,1.43.09c.42,0,.84,0,1.25-.06l.41-.06c.27,0,.54-.07.81-.12l.47-.12c.23-.06.47-.11.7-.18l.49-.17c.21-.08.43-.15.64-.23l.48-.22.59-.29.46-.27.55-.33.44-.31.51-.38.41-.36.47-.42.38-.39c.14-.15.29-.31.42-.47l.34-.43c.13-.17.26-.33.38-.5l.3-.46c.11-.18.22-.36.33-.54s.17-.32.26-.48.19-.38.28-.57.15-.34.21-.51.15-.4.22-.6.11-.35.17-.53.11-.42.16-.63.08-.37.11-.55.07-.43.1-.65,0-.38.06-.57,0-.18,0-.27a12.23,12.23,0,0,1,2,19.52,18.71,18.71,0,0,0-8.25-1.79,18.72,18.72,0,0,0-8.25,1.79A12.18,12.18,0,0,1,8.32,14.43ZM1.94,51.55c0-3.49.36-16.11,7-23.07a14.93,14.93,0,0,1,3.31-2.61,1.09,1.09,0,0,0,.45-.13,16.28,16.28,0,0,1,7.88-1.87,16.28,16.28,0,0,1,7.88,1.87,1.08,1.08,0,0,0,.45.12,14.93,14.93,0,0,1,3.31,2.61c6.6,6.95,7,19.58,7,23.07Z"/></svg>