<svg id="Layer_1" data-name="Layer 1" xmlns="http://www.w3.org/2000/svg" viewBox="0 0 49.64 61.83"><defs><style>.cls-1{fill:#76838f;}</style></defs><title>icon-svg</title><path class="cls-1" d="M39.19,37.44c-1.77-5.88-4.65-10.16-8.51-12.74a14.43,14.43,0,1,0-20.25,0,17.14,17.14,0,0,0-2.92,2.45C-.74,35.83,0,51.88,0,52.56a1,1,0,0,0,1,.92H25.76a12.26,12.26,0,1,0,13.43-16ZM20.55,2.2a12.16,12.16,0,0,1,4.1.71c0,.09,0,.18,0,.28A10.25,10.25,0,0,1,14.44,13.42c-.28,0-.55,0-.82,0l-.27,0-.54-.07-.31-.06-.48-.1L11.69,13l-.45-.13-.33-.12-.43-.17-.32-.14-.41-.21-.31-.17L9,11.86l-.29-.18-.08-.06A12.21,12.21,0,0,1,20.55,2.2ZM8.32,14.43q0-.21,0-.43l.07,0a12.29,12.29,0,0,0,1.25.61l.29.12a12.17,12.17,0,0,0,1.21.41l.15,0a12.27,12.27,0,0,0,1.37.27l.33,0a12.58,12.58,0,0,0,1.43.09c.42,0,.84,0,1.25-.06l.41-.06c.27,0,.54-.07.81-.12l.47-.12c.23-.06.47-.11.7-.18l.49-.17c.21-.08.43-.15.64-.23l.48-.22.59-.28.47-.27.55-.33.45-.32.5-.37.42-.36.46-.41.39-.4.41-.45.35-.44c.12-.16.25-.32.36-.49l.31-.48c.11-.17.21-.34.31-.52s.18-.34.27-.51.18-.36.26-.54.15-.36.23-.54.14-.38.21-.57.12-.37.18-.57.11-.39.15-.59.09-.39.12-.59.07-.41.09-.61,0-.4.07-.61,0-.17,0-.25a12.23,12.23,0,0,1,2,19.52,18.72,18.72,0,0,0-8.25-1.79,18.72,18.72,0,0,0-8.25,1.79A12.19,12.19,0,0,1,8.32,14.43ZM1.94,51.55c0-3.49.36-16.11,7-23.07a14.93,14.93,0,0,1,3.32-2.62,1.08,1.08,0,0,0,.44-.12,16.29,16.29,0,0,1,7.88-1.87,16.29,16.29,0,0,1,7.88,1.87,1.1,1.1,0,0,0,.53.13c3.67,2.17,6.4,6,8.15,11.43A12.18,12.18,0,0,0,25.28,51.55Zm42-1.33H38v5.9h0a.66.66,0,1,1-1.32,0h0v-5.9h-5.9a.66.66,0,1,1,0-1.32h5.9V43h0A.66.66,0,1,1,38,43h0v5.9h5.9a.66.66,0,1,1,0,1.32Z"/></svg>