<svg id="Layer_1" data-name="Layer 1" xmlns="http://www.w3.org/2000/svg" viewBox="0 0 278.67 360.44"><defs><style>.cls-1{fill:#d68945;}</style></defs><title>icon-svg</title><g id="TESLA"><g id="g8"><polyline id="polyline10" class="cls-1" points="238.08 338.48 238.08 360.39 245.1 360.39 245.1 345.81 270.68 345.81 270.68 360.39 277.7 360.39 277.7 338.52 238.08 338.48"/><path id="path12" class="cls-1" d="M244.32,331.39h27a10,10,0,0,0,7.33-7.26H237a10,10,0,0,0,7.33,7.26"/></g><g id="g14"><path id="path16" class="cls-1" d="M216.8,360.41a10,10,0,0,0,6.18-7.14H191.46l0-29.12-7.07,0v36.24H216.8"/></g><g id="g18"><path id="path20" class="cls-1" d="M131.87,331.3h25c3.76-1.09,6.92-4,7.69-7.14H124.88v21.42h32.44v7.52l-25.45,0a14.2,14.2,0,0,0-9.06,7.33l2.06,0h39.41V338.46H131.87V331.3"/></g><g id="g22"><path id="path24" class="cls-1" d="M70.27,331.37h27a10,10,0,0,0,7.33-7.27H62.94a10,10,0,0,0,7.33,7.27"/><path id="path26" class="cls-1" d="M70.27,345.69h27a10,10,0,0,0,7.33-7.26H62.94a10,10,0,0,0,7.33,7.26"/><path id="path28" class="cls-1" d="M70.27,360.4h27a10,10,0,0,0,7.33-7.26H62.94a10,10,0,0,0,7.33,7.26"/></g><g id="g30"><path id="path32" class="cls-1" d="M0,324.19a10.08,10.08,0,0,0,7.32,7.21H18.69l.58.23v28.69h7.1V331.63l.65-.23H38.39a10.22,10.22,0,0,0,7.28-7.21v-.07H0v.07"/></g></g><g id="T"><path id="path35" class="cls-1" d="M139.35,252.5,174.83,53c33.82,0,44.48,3.71,46,18.84,0,0,22.68-8.46,34.13-25.64-44.65-20.69-89.51-21.62-89.51-21.62L139.29,56.45h.06L113.17,24.56s-44.86.93-89.5,21.62C35.11,63.36,57.8,71.82,57.8,71.82,59.35,56.69,70,53,103.59,53L139.35,252.5"/><path id="path37" class="cls-1" d="M139.34,15.36A292.29,292.29,0,0,1,259,39.37c5.65-10.17,7.11-14.67,7.11-14.67A347.1,347.1,0,0,0,139.33,0,347.06,347.06,0,0,0,12.54,24.71a122.67,122.67,0,0,0,7.1,14.67,292.27,292.27,0,0,1,119.69-24h0"/></g></svg>