<svg id="Layer_1" data-name="Layer 1" xmlns="http://www.w3.org/2000/svg" viewBox="0 0 80.26 80.91"><defs><style>.cls-1{fill:#d68945;}</style></defs><title>icon-svg</title><path class="cls-1" d="M75.34,51l-.59-.59a16.85,16.85,0,0,0-23-.75L31.25,29.19a16.87,16.87,0,0,0-.75-23l-.59-.59a16.87,16.87,0,0,0-23.83,0l-.21.21a20.07,20.07,0,0,0,0,28.35L46.77,75.05a20.07,20.07,0,0,0,28.35,0l.22-.22A16.87,16.87,0,0,0,75.34,51Z"/><path class="cls-1" d="M43.45,2.7a27.26,27.26,0,0,1,32,32A1.1,1.1,0,0,0,76.28,36l.21,0a1.1,1.1,0,0,0,1.08-.89A29.46,29.46,0,0,0,43,.54a1.1,1.1,0,1,0,.42,2.16Z"/><path class="cls-1" d="M64.9,33.07l.21,0a1.1,1.1,0,0,0,1.08-.89A17.3,17.3,0,0,0,45.91,11.92a1.1,1.1,0,1,0,.42,2.16A15.1,15.1,0,0,1,64,31.78,1.1,1.1,0,0,0,64.9,33.07Z"/></svg>